<svg width="2300" height="2300" viewBox="0 0 2300 2300" fill="none" xmlns="http://www.w3.org/2000/svg">
<rect width="127.276" height="127.276" transform="matrix(-1 0 0 1 1850.16 831.9)" fill="#001CE0"/>
<rect width="127.276" height="127.276" transform="matrix(-1 0 0 1 1850.16 959.09)" fill="#001CE0"/>
<rect width="127.276" height="127.276" transform="matrix(-1 0 0 1 1850.16 1086.45)" fill="#001CE0"/>
<rect width="127.276" height="127.276" transform="matrix(-1 0 0 1 1850.16 1213.63)" fill="#001CE0"/>
<rect width="127.276" height="127.276" transform="matrix(-1 0 0 1 1850.16 1340.99)" fill="#001CE0"/>
<rect width="127.276" height="127.276" transform="matrix(-1 0 0 1 1722.81 704.545)" fill="#001CE0"/>
<rect width="127.276" height="127.276" transform="matrix(-1 0 0 1 1722.81 831.9)" fill="#001CE0"/>
<rect width="127.276" height="127.276" transform="matrix(-1 0 0 1 1722.81 959.09)" fill="#001CE0"/>
<rect width="127.276" height="127.276" transform="matrix(-1 0 0 1 1722.81 1086.45)" fill="#001CE0"/>
<rect width="127.276" height="127.276" transform="matrix(-1 0 0 1 1722.81 1213.63)" fill="#001CE0"/>
<rect width="127.276" height="127.276" transform="matrix(-1 0 0 1 1722.81 1340.99)" fill="#001CE0"/>
<rect width="127.276" height="127.276" transform="matrix(-1 0 0 1 1722.81 1468.18)" fill="#001CE0"/>
<rect width="127.276" height="127.276" transform="matrix(-1 0 0 1 1595.45 577.189)" fill="#001CE0"/>
<rect width="127.276" height="127.276" transform="matrix(-1 0 0 1 1595.45 704.545)" fill="#001CE0"/>
<rect width="127.276" height="127.276" transform="matrix(-1 0 0 1 1595.45 831.9)" fill="#001CE0"/>
<rect width="127.276" height="127.276" transform="matrix(-1 0 0 1 1595.45 1340.99)" fill="#001CE0"/>
<rect width="127.276" height="127.276" transform="matrix(-1 0 0 1 1595.45 1468.18)" fill="#001CE0"/>
<rect width="127.276" height="127.276" transform="matrix(-1 0 0 1 1595.45 1595.54)" fill="#001CE0"/>
<rect width="127.276" height="127.276" transform="matrix(-1 0 0 1 1468.1 450)" fill="#001CE0"/>
<rect width="127.276" height="127.276" transform="matrix(-1 0 0 1 1468.1 577.189)" fill="#001CE0"/>
<rect width="127.276" height="127.276" transform="matrix(-1 0 0 1 1468.1 1468.18)" fill="#001CE0"/>
<rect width="127.276" height="127.276" transform="matrix(-1 0 0 1 1468.1 1595.54)" fill="#001CE0"/>
<rect width="127.276" height="127.276" transform="matrix(-1 0 0 1 1468.1 1722.72)" fill="#001CE0"/>
<rect width="127.276" height="127.276" transform="matrix(-1 0 0 1 1340.74 450)" fill="#001CE0"/>
<rect width="127.276" height="127.276" transform="matrix(-1 0 0 1 1340.74 577.189)" fill="#001CE0"/>
<rect width="127.276" height="127.276" transform="matrix(-1 0 0 1 1340.74 704.545)" fill="#001CE0"/>
<rect width="127.276" height="127.276" transform="matrix(-1 0 0 1 1213.39 450)" fill="#001CE0"/>
<rect width="127.276" height="127.276" transform="matrix(-1 0 0 1 1213.39 577.189)" fill="#001CE0"/>
<rect width="127.276" height="127.276" transform="matrix(-1 0 0 1 1213.39 704.545)" fill="#001CE0"/>
<rect width="127.276" height="127.276" transform="matrix(-1 0 0 1 1086.03 450)" fill="#001CE0"/>
<rect width="127.276" height="127.276" transform="matrix(-1 0 0 1 1086.03 577.189)" fill="#001CE0"/>
<rect width="127.276" height="127.276" transform="matrix(-1 0 0 1 1086.03 704.545)" fill="#001CE0"/>
<rect width="127.276" height="127.276" transform="matrix(-1 0 0 1 959.344 450)" fill="#001CE0"/>
<rect width="127.276" height="127.276" transform="matrix(-1 0 0 1 959.344 577.189)" fill="#001CE0"/>
<rect width="127.276" height="127.276" transform="matrix(-1 0 0 1 959.344 1468.18)" fill="#001CE0"/>
<rect width="127.276" height="127.276" transform="matrix(-1 0 0 1 959.344 1722.72)" fill="#001CE0"/>
<rect width="127.276" height="127.276" transform="matrix(-1 0 0 1 831.984 577.189)" fill="#001CE0"/>
<rect width="127.276" height="127.276" transform="matrix(-1 0 0 1 831.984 704.545)" fill="#001CE0"/>
<rect width="127.276" height="127.276" transform="matrix(-1 0 0 1 831.984 831.9)" fill="#001CE0"/>
<rect width="127.276" height="127.276" transform="matrix(-1 0 0 1 831.984 1340.99)" fill="#001CE0"/>
<rect width="127.276" height="127.276" transform="matrix(-1 0 0 1 831.984 1595.54)" fill="#001CE0"/>
<rect width="127.276" height="127.276" transform="matrix(-1 0 0 1 704.633 704.545)" fill="#001CE0"/>
<rect width="127.276" height="127.276" transform="matrix(-1 0 0 1 704.633 831.9)" fill="#001CE0"/>
<rect width="127.276" height="127.276" transform="matrix(-1 0 0 1 577.273 831.9)" fill="#001CE0"/>
<rect width="127.276" height="127.276" transform="matrix(-1 0 0 1 704.633 959.09)" fill="#001CE0"/>
<rect width="127.276" height="127.276" transform="matrix(-1 0 0 1 577.273 959.09)" fill="#001CE0"/>
<rect width="127.276" height="127.276" transform="matrix(-1 0 0 1 704.633 1086.45)" fill="#001CE0"/>
<rect width="127.276" height="127.276" transform="matrix(-1 0 0 1 577.273 1086.45)" fill="#001CE0"/>
<rect width="127.276" height="127.276" transform="matrix(-1 0 0 1 704.633 1213.63)" fill="#001CE0"/>
<rect width="127.276" height="127.276" transform="matrix(-1 0 0 1 577.273 1213.63)" fill="#001CE0"/>
<rect width="127.276" height="127.276" transform="matrix(-1 0 0 1 704.633 1340.99)" fill="#001CE0"/>
<rect width="127.276" height="127.276" transform="matrix(-1 0 0 1 577.273 1340.99)" fill="#001CE0"/>
<rect width="127.276" height="127.276" transform="matrix(-1 0 0 1 704.633 1468.18)" fill="#001CE0"/>
</svg>
