<svg width="2300" height="2300" viewBox="0 0 2300 2300" fill="none" xmlns="http://www.w3.org/2000/svg">
<path fill-rule="evenodd" clip-rule="evenodd" d="M519.699 590.016H659.776V730.093H519.699V590.016ZM799.715 590.016H660.031V730.093H799.715H800.108H939.792V590.016H800.108H799.715ZM1080.12 590.016H940.047V730.093H1080.12V590.016ZM1080.39 590.016H1220.08H1220.47H1360.16V730.093H1220.47H1220.08H1080.39V590.016ZM1360.41 590.016H1500.11H1500.49H1640.19V730.093H1500.49H1500.11H1360.41V590.016ZM1640.44 590.016H1780.51V730.093H1640.44V590.016ZM1920.85 730.189H1780.77V870.197V870.267V1010.27H1920.85V870.267V870.197V730.189ZM1780.77 1010.38H1920.85V1150.39V1150.46V1290.4V1290.47V1430.48H1780.77V1290.47V1290.4V1150.46V1150.39V1010.38ZM1920.85 1430.58H1780.77V1570.65H1920.85V1430.58ZM1780.51 730.189H1640.44V870.267H1780.51V730.189ZM1640.44 1570.59H1780.51V1710.67H1640.44V1570.59ZM1500.11 870.197H1640.19V1010.27H1500.11V870.197ZM1640.19 1570.59H1500.49H1500.11H1360.41V1710.67H1500.11H1500.49H1640.19V1570.59ZM1500.49 1010.38H1360.41V1150.46H1500.49V1010.38ZM1220.08 1150.39H1360.16V1290.47H1220.47V1430.48H1080.39V1290.4H1220.08V1150.39ZM1360.16 1570.59H1220.47H1220.08H1080.39V1710.67H1220.08H1220.47H1360.16V1570.59ZM940.047 1150.39H1080.12V1290.47H940.047V1150.39ZM1080.12 1570.59H940.047V1710.67H1080.12V1570.59ZM939.792 1010.38H799.715V1150.46H939.792V1010.38ZM800.108 1570.59H939.792V1710.67H800.108H799.715H660.031V1570.59H799.715H800.108ZM660.031 870.197H800.108V1010.27H660.031V870.197ZM659.776 730.189H520.077H519.699H380V870.267L380 1010.08H520.077L520.077 870.267H659.776V730.189ZM380 1010.18H520.077V1150.26H380V1010.18ZM520.077 1150.39H380V1290.4V1290.47V1430.48H520.077V1290.47V1290.4V1150.39ZM520.077 1430.58H380V1570.65H519.699V1710.67H659.776V1570.59H520.077V1430.58Z" fill="#001CE0"/>
</svg>
