<svg width="2300" height="2300" viewBox="0 0 2300 2300" fill="none" xmlns="http://www.w3.org/2000/svg">
<path fill-rule="evenodd" clip-rule="evenodd" d="M1570 450H730V590H590V730H450V1570H590V1710H730V1850H1570V1710H1710L1710 1570H1850V730H1710V590H1570V450ZM1570 730V590H730V730H590V1570H730V1710H1570V1570H1710L1710 730H1570ZM1430 870V730H1570V870H1430ZM1430 1010V870H1290V730H1010V870H870V1010H730V1290H870V1430H1010V1570H1290V1430H1430V1290H1570V1010H1430ZM1430 1010V1290H1290V1430H1010V1290H870V1010H1010V870H1290V1010H1430Z" fill="#001CE0"/>
</svg>
