<svg width="2300" height="2300" viewBox="0 0 2300 2300" fill="none" xmlns="http://www.w3.org/2000/svg">
<rect width="127.28" height="127.28" transform="matrix(-1 0 0 1 1849.99 831.82)" fill="#001CE0"/>
<rect width="127.28" height="127.28" transform="matrix(-1 0 0 1 1849.99 959.092)" fill="#001CE0"/>
<rect width="127.28" height="127.28" transform="matrix(-1 0 0 1 1849.99 1086.37)" fill="#001CE0"/>
<rect width="127.28" height="127.28" transform="matrix(-1 0 0 1 1849.99 1213.64)" fill="#001CE0"/>
<rect width="127.28" height="127.28" transform="matrix(-1 0 0 1 1849.99 1340.91)" fill="#001CE0"/>
<rect width="127.28" height="127.28" transform="matrix(-1 0 0 1 1722.75 704.547)" fill="#001CE0"/>
<rect width="127.28" height="127.28" transform="matrix(-1 0 0 1 1722.75 1468.19)" fill="#001CE0"/>
<rect width="127.28" height="127.28" transform="matrix(-1 0 0 1 1595.47 577.273)" fill="#001CE0"/>
<rect width="127.28" height="127.28" transform="matrix(-1 0 0 1 1595.47 959.092)" fill="#001CE0"/>
<rect width="127.28" height="127.28" transform="matrix(-1 0 0 1 1595.47 1595.45)" fill="#001CE0"/>
<rect width="127.28" height="127.28" transform="matrix(-1 0 0 1 1468.18 450)" fill="#001CE0"/>
<rect width="127.28" height="127.28" transform="matrix(-1 0 0 1 1468.18 831.82)" fill="#001CE0"/>
<rect width="127.28" height="127.28" transform="matrix(-1 0 0 1 1468.18 1213.64)" fill="#001CE0"/>
<rect width="127.28" height="127.28" transform="matrix(-1 0 0 1 1468.18 1722.72)" fill="#001CE0"/>
<rect width="127.28" height="127.28" transform="matrix(-1 0 0 1 1340.9 450)" fill="#001CE0"/>
<rect width="127.28" height="127.28" transform="matrix(-1 0 0 1 1340.9 831.82)" fill="#001CE0"/>
<rect width="127.28" height="127.28" transform="matrix(-1 0 0 1 1340.9 1086.37)" fill="#001CE0"/>
<rect width="127.28" height="127.28" transform="matrix(-1 0 0 1 1340.9 1468.19)" fill="#001CE0"/>
<rect width="127.28" height="127.28" transform="matrix(-1 0 0 1 1340.9 1722.72)" fill="#001CE0"/>
<rect width="127.28" height="127.28" transform="matrix(-1 0 0 1 1213.66 450)" fill="#001CE0"/>
<rect width="127.28" height="127.28" transform="matrix(-1 0 0 1 1213.66 831.82)" fill="#001CE0"/>
<rect width="127.28" height="127.28" transform="matrix(-1 0 0 1 1213.66 1086.37)" fill="#001CE0"/>
<rect width="127.28" height="127.28" transform="matrix(-1 0 0 1 1213.66 1340.91)" fill="#001CE0"/>
<rect width="127.28" height="127.28" transform="matrix(-1 0 0 1 1213.66 1722.72)" fill="#001CE0"/>
<rect width="127.28" height="127.28" transform="matrix(-1 0 0 1 1086.38 450)" fill="#001CE0"/>
<rect width="127.28" height="127.28" transform="matrix(-1 0 0 1 1086.38 831.82)" fill="#001CE0"/>
<rect width="127.28" height="127.28" transform="matrix(-1 0 0 1 1086.38 1086.37)" fill="#001CE0"/>
<rect width="127.28" height="127.28" transform="matrix(-1 0 0 1 1086.38 1340.91)" fill="#001CE0"/>
<rect width="127.28" height="127.28" transform="matrix(-1 0 0 1 1086.38 1722.72)" fill="#001CE0"/>
<rect width="127.28" height="127.28" transform="matrix(-1 0 0 1 959.086 450)" fill="#001CE0"/>
<rect width="127.28" height="127.28" transform="matrix(-1 0 0 1 959.086 831.82)" fill="#001CE0"/>
<rect width="127.28" height="127.28" transform="matrix(-1 0 0 1 959.086 1086.37)" fill="#001CE0"/>
<rect width="127.28" height="127.28" transform="matrix(-1 0 0 1 959.086 1340.91)" fill="#001CE0"/>
<rect width="127.28" height="127.28" transform="matrix(-1 0 0 1 959.086 1722.72)" fill="#001CE0"/>
<rect width="127.28" height="127.28" transform="matrix(-1 0 0 1 831.805 577.273)" fill="#001CE0"/>
<rect width="127.28" height="127.28" transform="matrix(-1 0 0 1 831.805 831.82)" fill="#001CE0"/>
<rect width="127.28" height="127.28" transform="matrix(-1 0 0 1 831.805 1086.37)" fill="#001CE0"/>
<rect width="127.28" height="127.28" transform="matrix(-1 0 0 1 831.805 1595.45)" fill="#001CE0"/>
<rect width="127.28" height="127.28" transform="matrix(-1 0 0 1 704.562 704.547)" fill="#001CE0"/>
<rect width="127.28" height="127.28" transform="matrix(-1 0 0 1 577.281 831.82)" fill="#001CE0"/>
<rect width="127.28" height="127.28" transform="matrix(-1 0 0 1 577.281 959.092)" fill="#001CE0"/>
<rect width="127.28" height="127.28" transform="matrix(-1 0 0 1 577.281 1086.37)" fill="#001CE0"/>
<rect width="127.28" height="127.28" transform="matrix(-1 0 0 1 577.281 1213.64)" fill="#001CE0"/>
<rect width="127.28" height="127.28" transform="matrix(-1 0 0 1 577.281 1340.91)" fill="#001CE0"/>
<rect width="127.28" height="127.28" transform="matrix(-1 0 0 1 704.562 1468.19)" fill="#001CE0"/>
</svg>
