<svg width="334" height="57" viewBox="0 0 334 57" fill="none" xmlns="http://www.w3.org/2000/svg">
<path fill-rule="evenodd" clip-rule="evenodd" d="M98.2353 31.6666H104.784V19H111.333V12.6667H104.784V6.33333V0H98.2353V6.33333H91.6863V12.6667H85.1373V19H91.6863V31.6666H85.1373V50.6666H91.6863V56.9999H104.784V50.6666H111.333V44.3333H104.784V50.6666H98.2353V31.6666ZM183.373 44.3333V50.6666H196.471V56.9999H176.824V50.6666H170.275V25.3333H176.824V19H183.373V38H176.824V44.3333H183.373ZM183.373 19V12.6667H203.02V19H209.569V44.3333H203.02V50.6666H196.471V31.6666H203.02V25.3333H196.471V19H183.373ZM163.725 25.3334L170.275 25.3333L170.274 6.33339H163.725V6.76472e-05H124.431V6.33339H130.98V12.6667H124.431V31.6667H117.882V50.6667L111.333 50.6666L111.333 57H137.529V50.6667H130.98V38H157.176V31.6667H163.725V25.3334ZM45.8431 31.6667H52.3922V50.6667H45.8431V57H0V50.6667H6.54902V31.6667H13.098V12.6667H19.6471V6.33339H13.098V6.76472e-05H52.3922V6.33339H58.9412V19H52.3922V25.3334H45.8431V31.6667ZM52.3922 56.9999L52.3922 50.6667L58.9412 50.6666V31.6666H65.4902V19H78.5883V31.6666H72.0393V50.6666H78.5883V56.9999H52.3922ZM32.7451 6.33339V12.6667H26.1961V25.3334H39.2941V19H45.8431V6.33339H32.7451ZM19.6471 38V50.6667H32.7451V44.3333H39.2941V31.6667H26.1961V38H19.6471ZM307.804 50.6666V44.3333H301.255V38H307.804V19H320.902V25.3333H327.451V31.6666H320.902V50.6666H307.804ZM288.157 50.6666V44.3333H294.706V25.3333H301.255V19H307.804V12.6667H327.451V19H334V44.3333H327.451V50.6666H320.902V56.9999H301.255V50.6666H288.157ZM288.157 56.9999V50.6666H281.608V31.6666H288.157V19H294.706V12.6667H288.157V0H281.608V6.33333H275.059V12.6667H268.51V19H275.059V31.6666H268.51V50.6666H275.059V56.9999H288.157ZM242.314 12.6667H235.765V31.6666H229.216V56.9999H209.569V50.6666H216.118V31.6666H222.667V12.6667H229.216V0H242.314V12.6667ZM150.627 25.3334V31.6667H137.529V12.6667H144.078V6.33339H157.176V25.3334H150.627ZM65.4902 12.6667V0H78.5883V6.33333H72.0393V12.6667H65.4902ZM248.863 19V31.6666H242.314V50.6666H235.765V56.9999H261.961V50.6666H255.412V31.6666H261.961V19H248.863ZM255.412 12.6667H248.863V0H261.961V6.33333H255.412V12.6667Z" fill="#001CE0"/>
</svg>
